# File produced by Open Asset Import Library (http://www.assimp.sf.net)
# (assimp v3.1.187496374)

mtllib DoorFrame.obj.mtl

# 37 vertex positions
v  2 0 -0.2
v  1.95 0 -0.15
v  1.95 0 -0.2
v  1.95 0 -0.05
v  1.95 0 0
v  2 0 0
v  1.93 0 -0.05
v  1.93 0 -0.15
v  1.95 3 -0.05
v  1.95 3 0
v  1.93 2.98 -0.05
v  0.07 2.98 -0.05
v  0.05 3 -0.05
v  1.93 3 -0.05
v  0.05 0 -0.05
v  0.07 0 -0.05
v  0.07 3 -0.05
v  1.93 2.98 -0.15
v  0.05 3 -0.15
v  0.07 0 -0.15
v  0.05 0 -0.15
v  0.07 2.98 -0.15
v  1.95 3 -0.15
v  0.07 3 -0.15
v  1.93 3 -0.15
v  1.95 3 -0.2
v  0 3.05 -0.2
v  0.05 0 -0.2
v  0 0 -0.2
v  0.05 3 -0.2
v  2 3.05 -0.2
v  2 3.05 0
v  0.05 3 0
v  0 3.05 0
v  0 0 0
v  0.05 0 0
v  2 3 -0.15

# 0 UV coordinates

# 8 vertex normals
vn 0 -0.0254 0
vn -0.0254 0 0
vn 2.2906e-19 5.52955e-36 0.0254
vn 0 0 -0.0254
vn 0.0254 0 0
vn 0 0 0.0254
vn 0.0254 0 -3.15159e-17
vn 0 0.0254 0

# Mesh 'SketchUp_ID3' with 68 faces
g SketchUp_ID3
usemtl ID4
f  1//1 2//1 3//1
f  2//1 1//1 4//1
f  4//1 1//1 5//1
f  5//1 1//1 6//1
f  2//1 7//1 8//1
f  7//1 2//1 4//1
f  9//2 5//2 10//2
f  5//2 9//2 4//2
f  9//3 7//3 4//3
f  7//3 9//3 11//3
f  11//3 9//3 12//3
f  13//3 12//3 9//3
f  13//3 9//3 14//3
f  12//3 15//3 16//3
f  15//3 12//3 13//3
f  13//3 14//3 17//3
f  18//2 7//2 11//2
f  7//2 18//2 8//2
f  19//4 20//4 21//4
f  20//4 19//4 22//4
f  22//4 19//4 18//4
f  23//4 18//4 19//4
f  23//4 19//4 24//4
f  18//4 2//4 8//4
f  2//4 18//4 23//4
f  23//4 24//4 25//4
f  26//2 2//2 23//2
f  2//2 26//2 3//2
f  27//4 28//4 29//4
f  28//4 27//4 30//4
f  30//4 27//4 26//4
f  31//4 26//4 27//4
f  26//4 1//4 3//4
f  1//4 26//4 31//4
f  1//5 32//5 6//5
f  32//5 1//5 31//5
f  32//6 5//6 6//6
f  5//6 32//6 10//6
f  10//6 32//6 33//6
f  34//6 33//6 32//6
f  33//6 35//6 36//6
f  35//6 33//6 34//6
f  9//1 10//1 14//1
f  14//1 10//1 17//1
f  10//1 33//1 17//1
f  13//1 17//1 33//1
f  20//5 12//5 16//5
f  12//5 20//5 22//5
f  18//1 11//1 22//1
f  12//1 22//1 11//1
f  15//7 33//7 36//7
f  33//7 15//7 13//7
f  20//1 15//1 21//1
f  15//1 20//1 16//1
f  35//1 21//1 15//1
f  35//1 15//1 36//1
f  35//1 28//1 21//1
f  28//1 35//1 29//1
f  23//1 25//1 26//1
f  25//1 24//1 26//1
f  26//1 24//1 30//1
f  19//1 30//1 24//1
f  28//5 19//5 21//5
f  19//5 28//5 30//5
f  27//2 35//2 34//2
f  35//2 27//2 29//2
f  32//8 27//8 34//8
f  27//8 32//8 31//8

# Mesh 'SketchUp_ID3' with 10 faces
g SketchUp_ID3
usemtl ID10
f  33//8 17//8 13//8
f  17//8 33//8 10//8
f  17//8 10//8 14//8
f  14//8 10//8 9//8
f  11//8 22//8 12//8
f  22//8 11//8 18//8
f  24//8 30//8 19//8
f  30//8 24//8 26//8
f  26//8 24//8 25//8
f  26//8 25//8 23//8

# Mesh 'SketchUp' with 3 faces
g SketchUp
usemtl ID14
l  24 17
l  23 37
l  14 25

