# File produced by Open Asset Import Library (http://www.assimp.sf.net)
# (assimp v3.1.187496374)

mtllib Door.obj.mtl

# 41 vertex positions
v  1.95 3 -0.2
v  1.95 0 -0.15
v  1.95 3 -0.15
v  1.95 0 -0.2
v  1 3 -0.2
v  0.05 3 -0.2
v  0.05 3 -0.15
v  0.05 0 -0.2
v  0.05 0 -0.15
v  1.7425 1.7 -0.15
v  1.6825 1.7 -0.15
v  1.6825 1.67 -0.15
v  1.7425 1.33 -0.15
v  1.6825 1.33 -0.15
v  1.6825 1.3 -0.15
v  1.7425 1.67 -0.15
v  1.7425 1.3 -0.15
v  1.6825 1.3 -0.2
v  1.6825 1.33 -0.2
v  1.7425 1.33 -0.2
v  1.6825 1.67 -0.2
v  1.6825 1.7 -0.2
v  1.7425 1.7 -0.2
v  1.7425 1.3 -0.2
v  1.7425 1.67 -0.2
v  1.6825 1.67 -0.06
v  1.7425 1.67 -0.06
v  1.7425 1.3 -0.05
v  1.7425 1.33 -0.06
v  1.7425 1.7 -0.05
v  1.6825 1.33 -0.06
v  1.6825 1.7 -0.05
v  1.6825 1.3 -0.05
v  1.6825 1.7 -0.3
v  1.7425 1.7 -0.3
v  1.7425 1.3 -0.3
v  1.7425 1.33 -0.29
v  1.7425 1.67 -0.29
v  1.6825 1.3 -0.3
v  1.6825 1.67 -0.29
v  1.6825 1.33 -0.29

# 30 UV coordinates
vt -0.0273403 1.64042 0
vt -0.952811 0.929571 0
vt -1.06627 1.64042 0
vt -0.920002 0.929571 0
vt -0.920002 0.913167 0
vt -0.952811 0.727253 0
vt -0.920002 0.727253 0
vt -0.920002 0.710849 0
vt -1.06627 0 0
vt -0.0273403 0 0
vt -0.952811 0.913167 0
vt -0.952811 0.710849 0
vt -1.06627 0.109361 0
vt -0.0273403 0.082021 0
vt -0.0273403 0.109361 0
vt -1.06627 0.082021 0
vt -0.546807 1.64042 0
vt -0.109361 0 0
vt -0.109361 1.64042 0
vt -0.082021 0 0
vt -0.082021 1.64042 0
vt 1.06627 0.082021 0
vt 0.0273403 0.109361 0
vt 0.0273403 0.082021 0
vt 0.546807 0.109361 0
vt 1.06627 0.109361 0
vt 0.109361 1.64042 0
vt 0.109361 0 0
vt 0.082021 1.64042 0
vt 0.082021 0 0

# 6 vertex normals
vn -0.0254 0 0
vn 0 -0.0254 0
vn 0.0254 0 0
vn 0 0 0.0254
vn 0 0 -0.0254
vn 0 0.0254 0

# Mesh 'SketchUp_ID3' with 7 faces
g SketchUp_ID3
usemtl ID4
f  1//1 2//1 3//1
f  2//1 1//1 4//1
f  1//2 3//2 5//2
f  5//2 3//2 6//2
f  7//2 6//2 3//2
f  8//3 7//3 9//3
f  7//3 8//3 6//3

# Mesh 'SketchUp' with 38 faces
g SketchUp
usemtl ID9
f  7/1/4 10/2/4 3/3/4
f  10/2/4 7/1/4 11/4/4
f  11/4/4 7/1/4 12/5/4
f  12/5/4 7/1/4 13/6/4
f  13/6/4 7/1/4 14/7/4
f  14/7/4 7/1/4 15/8/4
f  15/8/4 7/1/4 2/9/4
f  9/10/4 2/9/4 7/1/4
f  10/2/4 16/11/4 3/3/4
f  12/5/4 13/6/4 16/11/4
f  16/11/4 13/6/4 3/3/4
f  13/6/4 17/12/4 3/3/4
f  3/3/4 17/12/4 2/9/4
f  15/8/4 2/9/4 17/12/4
f  4/13/2 9/14/2 8/15/2
f  9/14/2 4/13/2 2/16/2
f  6/1/5 4/9/5 8/10/5
f  4/9/5 6/1/5 18/8/5
f  18/8/5 6/1/5 19/7/5
f  19/7/5 6/1/5 20/6/5
f  20/6/5 6/1/5 21/5/5
f  21/5/5 6/1/5 22/4/5
f  22/4/5 6/1/5 23/2/5
f  1/3/5 23/2/5 6/1/5
f  24/12/5 4/9/5 18/8/5
f  4/9/5 24/12/5 1/3/5
f  1/3/5 24/12/5 20/6/5
f  1/3/5 20/6/5 25/11/5
f  1/3/5 25/11/5 23/2/5
f  25/11/5 20/6/5 21/5/5
f  1/3/5 6/1/5 5/17/5
f  4/18/3 1/19/3 2/20/3
f  3/21/3 2/20/3 1/19/3
f  3/22/6 6/23/6 7/24/6
f  6/23/6 3/22/6 5/25/6
f  5/25/6 3/22/6 1/26/6
f  6/27/1 8/28/1 7/29/1
f  9/30/1 7/29/1 8/28/1

# Mesh 'SketchUp_ID18' with 14 faces
g SketchUp_ID18
usemtl ID20
f  7//5 2//5 9//5
f  2//5 7//5 15//5
f  15//5 7//5 14//5
f  14//5 7//5 13//5
f  13//5 7//5 12//5
f  12//5 7//5 11//5
f  11//5 7//5 10//5
f  2//5 17//5 3//5
f  17//5 2//5 15//5
f  3//5 17//5 13//5
f  3//5 13//5 16//5
f  16//5 13//5 12//5
f  3//5 16//5 10//5
f  3//5 10//5 7//5

# Mesh 'SketchUp' with 48 faces
g SketchUp
usemtl ID29
f  16//2 26//2 12//2
f  26//2 16//2 27//2
f  28//3 29//3 30//3
f  29//3 28//3 17//3
f  29//3 17//3 13//3
f  27//3 30//3 29//3
f  30//3 27//3 10//3
f  10//3 27//3 16//3
f  26//5 29//5 31//5
f  29//5 26//5 27//5
f  32//1 26//1 33//1
f  26//1 32//1 11//1
f  26//1 11//1 12//1
f  31//1 33//1 26//1
f  33//1 31//1 15//1
f  15//1 31//1 14//1
f  29//6 14//6 31//6
f  14//6 29//6 13//6
f  30//6 11//6 32//6
f  11//6 30//6 10//6
f  30//4 33//4 28//4
f  33//4 30//4 32//4
f  17//2 33//2 15//2
f  33//2 17//2 28//2
f  23//6 34//6 22//6
f  34//6 23//6 35//6
f  36//3 20//3 24//3
f  20//3 36//3 37//3
f  37//3 36//3 38//3
f  35//3 38//3 36//3
f  38//3 23//3 25//3
f  23//3 38//3 35//3
f  34//5 36//5 39//5
f  36//5 34//5 35//5
f  34//1 21//1 22//1
f  21//1 34//1 40//1
f  40//1 34//1 41//1
f  39//1 41//1 34//1
f  41//1 18//1 19//1
f  18//1 41//1 39//1
f  38//2 21//2 40//2
f  21//2 38//2 25//2
f  38//4 41//4 37//4
f  41//4 38//4 40//4
f  20//6 41//6 19//6
f  41//6 20//6 37//6
f  36//2 18//2 39//2
f  18//2 36//2 24//2

# Mesh 'SketchUp_ID42' with 1 faces
g SketchUp_ID42
usemtl ID43
l  23 10

